# xmcd
# 
# Track frame offsets:
#     150
#     21054
#     42536
#     58802
#     76913
#     96444
#     118427
#     138908
#     153298
#     174520
#     197075
#     213237
#     233459
#     254176
#     271992
#     292925
#     305453
#     322237
# 
# Disc length: 4511
# 
# Revision: 4
# Processed by: cddbd v1.5.2PL0 Copyright (c) Steve Scherf et al.
# Submitted via: fre:ac v1.0.31
# 
DISCID=0a119d12
DTITLE=Various Artist - Get The Blues 2
DYEAR=0
DGENRE=Blues
TTITLE0=Muddy Waters - Streamline Woman
TTITLE1=Ronnie Earl - Hey Jose
TTITLE2=Marcia Ball - Baby Why Not?
TTITLE3=David Jacobs-Strain - River Was Green
TTITLE4=Kim Wilson - Tortured
TTITLE5=Shemekia Copeland - Happy Valentine's Day
TTITLE6=Howlin Wolf - Worried About My Baby (rehearsal take)
TTITLE7=Lou Pride - Livin' A Lie
TTITLE8=Alice Stuart - The Man's So Good
TTITLE9=Rick Holmstrom - Pee Wee's Nightmare
TTITLE10=Blind Boys Of Alabama - Wade In The Water
TTITLE11=W.C. Clark - Let It Rain
TTITLE12=Koko Taylor - I'm A Woman
TTITLE13=Smokin' Joe Kubik with Bnois King - Healthy Mama
TTITLE14=E.G. Knight - Sad Sad Sunday
TTITLE15=Mark Lemhouse - Electra 225
TTITLE16=The Groove Hogs - Baby's Gone
TTITLE17=Indigenous - Hold On
EXTD=(C) 2003\nNARM 50009\n
EXTT0=
EXTT1=
EXTT2=
EXTT3=
EXTT4=
EXTT5=
EXTT6=
EXTT7=
EXTT8=
EXTT9=
EXTT10=
EXTT11=
EXTT12=
EXTT13=
EXTT14=
EXTT15=
EXTT16=
EXTT17=
PLAYORDER=
